<svg width="38" height="38" viewBox="0 0 38 38" fill="none" xmlns="http://www.w3.org/2000/svg">
<path d="M11.1736 3.82857L13.0214 3.27282C14.0336 2.96759 15.1223 3.04106 16.0843 3.47954C17.0463 3.91801 17.8159 4.69152 18.2496 5.65573L19.6777 8.8319C20.0505 9.66125 20.1544 10.5865 19.9746 11.4779C19.7949 12.3692 19.3406 13.1819 18.6755 13.802L16.3084 16.0076C16.2392 16.072 16.1954 16.1591 16.1849 16.253C16.1152 16.8816 16.5411 18.1055 17.5244 19.8076C18.2369 21.0441 18.8845 21.9134 19.4339 22.3995C19.8186 22.7399 20.0292 22.8127 20.1195 22.7874L23.302 21.8136C24.1711 21.5478 25.1016 21.5606 25.9631 21.8502C26.8245 22.1398 27.5738 22.6918 28.1058 23.4286L30.1325 26.2406C30.7494 27.0956 31.0353 28.1454 30.9368 29.1951C30.8384 30.2448 30.3625 31.2232 29.5973 31.9486L28.1929 33.2786C27.4483 33.9836 26.5339 34.4839 25.5386 34.7305C24.5433 34.9772 23.5011 34.9619 22.5135 34.6861C18.153 33.4686 14.2437 29.7889 10.7414 23.7231C7.23588 17.6495 6.00405 12.4181 7.14088 8.02757C7.39608 7.0401 7.90134 6.13501 8.60796 5.39955C9.31458 4.66408 10.1972 4.12304 11.1736 3.82857ZM11.8608 6.10382C11.2748 6.28005 10.7441 6.60427 10.3197 7.04521C9.89544 7.48616 9.59187 8.02896 9.4383 8.62132C8.48513 12.3136 9.57605 16.9512 12.7997 22.5356C16.0202 28.1121 19.4861 31.3754 23.1547 32.3998C23.7473 32.5651 24.3726 32.5741 24.9698 32.4259C25.5669 32.2777 26.1155 31.9775 26.562 31.5543L27.9649 30.2243C28.3129 29.8946 28.5295 29.4499 28.5743 28.9726C28.6192 28.4953 28.4893 28.018 28.2087 27.6292L26.182 24.8188C25.9402 24.4835 25.5994 24.2323 25.2075 24.1005C24.8157 23.9688 24.3924 23.963 23.9971 24.0841L20.8066 25.0611C18.9541 25.6121 17.2742 24.1221 15.4692 20.9951C14.2501 18.8892 13.6832 17.2584 13.8257 15.9901C13.8986 15.3315 14.2057 14.7235 14.6886 14.2706L17.0557 12.0651C17.3579 11.7831 17.5642 11.4135 17.6457 11.0083C17.7272 10.6031 17.6798 10.1825 17.5101 9.80565L16.0836 6.62948C15.8864 6.1912 15.5366 5.83961 15.0993 5.64033C14.6619 5.44105 14.1671 5.40769 13.707 5.54648L11.8608 6.10382Z" fill="black"/>
</svg>
