<svg width="24" height="24" viewBox="0 0 24 24" fill="none" xmlns="http://www.w3.org/2000/svg">
<path d="M19 8.00024H5C3.89543 8.00024 3 8.89567 3 10.0002V20.0002C3 21.1048 3.89543 22.0002 5 22.0002H19C20.1046 22.0002 21 21.1048 21 20.0002V10.0002C21 8.89567 20.1046 8.00024 19 8.00024Z" stroke="#111111" stroke-width="2" stroke-linecap="round" stroke-linejoin="round"/>
<path d="M12 5.00025C12 4.4069 11.8241 3.82688 11.4944 3.33354C11.1648 2.84019 10.6962 2.45567 10.148 2.22861C9.59987 2.00154 8.99667 1.94213 8.41473 2.05789C7.83279 2.17365 7.29824 2.45937 6.87868 2.87893C6.45912 3.29848 6.1734 3.83303 6.05764 4.41498C5.94189 4.99692 6.0013 5.60012 6.22836 6.1483C6.45542 6.69648 6.83994 7.16501 7.33329 7.49466C7.82664 7.8243 8.40666 8.00025 9 8.00025M12 5.00025C12 4.4069 12.1759 3.82688 12.5056 3.33354C12.8352 2.84019 13.3038 2.45567 13.8519 2.22861C14.4001 2.00154 15.0033 1.94213 15.5853 2.05789C16.1672 2.17365 16.7018 2.45937 17.1213 2.87893C17.5409 3.29848 17.8266 3.83303 17.9424 4.41498C18.0581 4.99692 17.9987 5.60012 17.7716 6.1483C17.5446 6.69648 17.1601 7.16501 16.6667 7.49466C16.1734 7.8243 15.5933 8.00025 15 8.00025M12 5.00025V22.0003M21 15.0002H3" stroke="#111111" stroke-width="2" stroke-linecap="round" stroke-linejoin="round"/>
</svg>
