<svg width="113" height="29" viewBox="0 0 113 29" fill="none" xmlns="http://www.w3.org/2000/svg">
<path d="M0.792969 28.9219C0.871094 28.6484 0.942708 28.3099 1.00781 27.9062C1.08594 27.5026 1.15104 27.0013 1.20312 26.4023C1.25521 25.8034 1.29427 25.0938 1.32031 24.2734C1.34635 23.4401 1.35938 22.4701 1.35938 21.3633V8.64844C1.35938 7.54167 1.34635 6.57812 1.32031 5.75781C1.29427 4.92448 1.25521 4.20833 1.20312 3.60938C1.15104 2.9974 1.08594 2.48958 1.00781 2.08594C0.942708 1.68229 0.871094 1.34375 0.792969 1.07031V0.992188H5.48047V1.07031C5.40234 1.34375 5.32422 1.68229 5.24609 2.08594C5.18099 2.48958 5.1224 2.9974 5.07031 3.60938C5.03125 4.20833 4.99219 4.92448 4.95312 5.75781C4.92708 6.57812 4.91406 7.54167 4.91406 8.64844V13.0039L16.3203 3.6875C17.5964 2.64583 18.2344 1.7474 18.2344 0.992188H23.7227V1.07031C22.9544 1.2526 22.1732 1.60417 21.3789 2.125C20.5977 2.63281 19.7643 3.25781 18.8789 4L8.80078 12.4375L20.9297 25.7578C21.4375 26.2786 21.8672 26.7148 22.2188 27.0664C22.5833 27.4049 22.9023 27.6914 23.1758 27.9258C23.4492 28.1471 23.6966 28.3359 23.918 28.4922C24.1523 28.6354 24.3932 28.7786 24.6406 28.9219V29H18.918C18.8659 28.8828 18.7747 28.7331 18.6445 28.5508C18.5273 28.3685 18.3841 28.1797 18.2148 27.9844C18.0586 27.7891 17.8828 27.5872 17.6875 27.3789C17.5052 27.1706 17.3294 26.9753 17.1602 26.793L4.91406 13.3555V21.3633C4.91406 22.4701 4.92708 23.4401 4.95312 24.2734C4.99219 25.0938 5.03125 25.8034 5.07031 26.4023C5.1224 27.0013 5.18099 27.5026 5.24609 27.9062C5.32422 28.3099 5.40234 28.6484 5.48047 28.9219V29H0.792969V28.9219ZM46.0273 29V28.9219C46.0534 28.8568 46.0729 28.7591 46.0859 28.6289C46.099 28.4987 46.1055 28.3815 46.1055 28.2773C46.1055 27.8737 46.0469 27.431 45.9297 26.9492C45.8255 26.4544 45.6172 25.8424 45.3047 25.1133L42.9414 19.8008C42.2122 19.7747 41.2422 19.7617 40.0312 19.7617C38.8203 19.7617 37.5117 19.7617 36.1055 19.7617C35.0768 19.7617 34.0807 19.7617 33.1172 19.7617C32.1667 19.7617 31.3073 19.7747 30.5391 19.8008L28.293 24.957C28.0977 25.4388 27.8893 25.9661 27.668 26.5391C27.4466 27.112 27.3359 27.6914 27.3359 28.2773C27.3359 28.4466 27.349 28.5898 27.375 28.707C27.401 28.8112 27.4271 28.8828 27.4531 28.9219V29H23.4688V28.9219C23.7031 28.6745 23.9961 28.2383 24.3477 27.6133C24.6992 26.9753 25.0833 26.181 25.5 25.2305L36.6914 0.40625H38.2539L48.8594 24.2734C49.1068 24.8333 49.3607 25.3802 49.6211 25.9141C49.8945 26.4349 50.1484 26.9036 50.3828 27.3203C50.6172 27.737 50.8255 28.0885 51.0078 28.375C51.1901 28.6615 51.3138 28.8438 51.3789 28.9219V29H46.0273ZM33.3711 18.082C34.1263 18.082 34.901 18.082 35.6953 18.082C36.4896 18.069 37.2643 18.0625 38.0195 18.0625C38.7878 18.0495 39.5234 18.043 40.2266 18.043C40.9297 18.0299 41.5677 18.0169 42.1406 18.0039L36.6523 5.60156L31.2617 18.082H33.3711ZM53.9766 28.9219C54.0547 28.6484 54.1263 28.3099 54.1914 27.9062C54.2565 27.5026 54.3151 27.0013 54.3672 26.4023C54.4193 25.8034 54.4583 25.0938 54.4844 24.2734C54.5104 23.4401 54.5234 22.4701 54.5234 21.3633V8.64844C54.5234 7.54167 54.5104 6.57812 54.4844 5.75781C54.4583 4.92448 54.4193 4.20833 54.3672 3.60938C54.3151 2.9974 54.2565 2.48958 54.1914 2.08594C54.1263 1.68229 54.0547 1.34375 53.9766 1.07031V0.992188H58.6445V1.07031C58.5664 1.34375 58.4883 1.68229 58.4102 2.08594C58.3451 2.48958 58.2865 2.9974 58.2344 3.60938C58.1953 4.20833 58.1562 4.92448 58.1172 5.75781C58.0911 6.57812 58.0781 7.54167 58.0781 8.64844V21.3633C58.0781 22.4701 58.0911 23.4401 58.1172 24.2734C58.1562 25.0938 58.1953 25.8034 58.2344 26.4023C58.2865 27.0013 58.3451 27.5026 58.4102 27.9062C58.4883 28.3099 58.5664 28.6484 58.6445 28.9219V29H53.9766V28.9219ZM68.5469 21.3633C68.5469 22.4701 68.5599 23.4401 68.5859 24.2734C68.625 25.0938 68.6641 25.8034 68.7031 26.4023C68.7552 27.0013 68.8138 27.5026 68.8789 27.9062C68.957 28.3099 69.0352 28.6484 69.1133 28.9219V29H64.4258V28.9219C64.5039 28.6484 64.5755 28.3099 64.6406 27.9062C64.7188 27.5026 64.7773 27.0013 64.8164 26.4023C64.8685 25.8034 64.9076 25.0938 64.9336 24.2734C64.9727 23.4531 64.9922 22.4831 64.9922 21.3633V8.64844C64.9922 7.54167 64.9727 6.57812 64.9336 5.75781C64.9076 4.92448 64.8685 4.20833 64.8164 3.60938C64.7773 3.01042 64.7188 2.50911 64.6406 2.10547C64.5755 1.6888 64.5039 1.34375 64.4258 1.07031V0.992188L65.2461 1.07031C65.4935 1.09635 65.7669 1.11589 66.0664 1.12891C66.3789 1.12891 66.6979 1.12891 67.0234 1.12891C67.5312 1.12891 68.2148 1.07031 69.0742 0.953125C69.9466 0.822917 71.0534 0.757812 72.3945 0.757812C73.6445 0.757812 74.7969 0.927083 75.8516 1.26562C76.9193 1.60417 77.8438 2.09896 78.625 2.75C79.4062 3.40104 80.0117 4.20182 80.4414 5.15234C80.8841 6.08984 81.1055 7.15755 81.1055 8.35547C81.1055 9.29297 80.9818 10.1654 80.7344 10.9727C80.5 11.7669 80.1615 12.4896 79.7188 13.1406C79.2891 13.7917 78.7682 14.3711 78.1562 14.8789C77.5443 15.3737 76.8607 15.7904 76.1055 16.1289L82.9609 25.7578C83.2995 26.2396 83.612 26.6562 83.8984 27.0078C84.1979 27.3594 84.4779 27.6654 84.7383 27.9258C85.0117 28.1732 85.2721 28.3815 85.5195 28.5508C85.7669 28.707 86.0208 28.8307 86.2812 28.9219V29H80.6367C80.5977 28.7526 80.4674 28.4271 80.2461 28.0234C80.0378 27.6068 79.7904 27.1966 79.5039 26.793L72.5898 17.0469C72.2904 17.0729 71.9909 17.099 71.6914 17.125C71.3919 17.138 71.0859 17.1445 70.7734 17.1445C70.4089 17.1445 70.0378 17.1315 69.6602 17.1055C69.2956 17.0794 68.9245 17.0339 68.5469 16.9688V21.3633ZM68.5469 15.4453C68.8984 15.5234 69.2565 15.582 69.6211 15.6211C69.9857 15.6471 70.3372 15.6602 70.6758 15.6602C71.6523 15.6602 72.5443 15.5169 73.3516 15.2305C74.1589 14.931 74.8424 14.4818 75.4023 13.8828C75.9753 13.2839 76.418 12.5417 76.7305 11.6562C77.043 10.7578 77.1992 9.70964 77.1992 8.51172C77.1992 7.53516 77.0885 6.64974 76.8672 5.85547C76.6458 5.0612 76.3138 4.39062 75.8711 3.84375C75.4414 3.28385 74.8945 2.85417 74.2305 2.55469C73.5664 2.24219 72.7917 2.08594 71.9062 2.08594C71.0078 2.08594 70.2917 2.13151 69.7578 2.22266C69.224 2.3138 68.8203 2.41146 68.5469 2.51562V15.4453ZM107.434 29V28.9219C107.46 28.8568 107.479 28.7591 107.492 28.6289C107.505 28.4987 107.512 28.3815 107.512 28.2773C107.512 27.8737 107.453 27.431 107.336 26.9492C107.232 26.4544 107.023 25.8424 106.711 25.1133L104.348 19.8008C103.618 19.7747 102.648 19.7617 101.438 19.7617C100.227 19.7617 98.918 19.7617 97.5117 19.7617C96.4831 19.7617 95.487 19.7617 94.5234 19.7617C93.5729 19.7617 92.7135 19.7747 91.9453 19.8008L89.6992 24.957C89.5039 25.4388 89.2956 25.9661 89.0742 26.5391C88.8529 27.112 88.7422 27.6914 88.7422 28.2773C88.7422 28.4466 88.7552 28.5898 88.7812 28.707C88.8073 28.8112 88.8333 28.8828 88.8594 28.9219V29H84.875V28.9219C85.1094 28.6745 85.4023 28.2383 85.7539 27.6133C86.1055 26.9753 86.4896 26.181 86.9062 25.2305L98.0977 0.40625H99.6602L110.266 24.2734C110.513 24.8333 110.767 25.3802 111.027 25.9141C111.301 26.4349 111.555 26.9036 111.789 27.3203C112.023 27.737 112.232 28.0885 112.414 28.375C112.596 28.6615 112.72 28.8438 112.785 28.9219V29H107.434ZM94.7773 18.082C95.5326 18.082 96.3073 18.082 97.1016 18.082C97.8958 18.069 98.6706 18.0625 99.4258 18.0625C100.194 18.0495 100.93 18.043 101.633 18.043C102.336 18.0299 102.974 18.0169 103.547 18.0039L98.0586 5.60156L92.668 18.082H94.7773Z" fill="#161A20"/>
</svg>
