<svg width="24" height="24" viewBox="0 0 24 24" fill="none" xmlns="http://www.w3.org/2000/svg">
<path d="M7.671 6.4796L10.6 2.6751C10.7833 2.44176 10.9966 2.26676 11.2397 2.1501C11.4827 2.03343 11.7369 1.9751 12.0022 1.9751C12.2674 1.9751 12.5209 2.03343 12.7625 2.1501C13.0041 2.26676 13.2167 2.44176 13.4 2.6751L16.329 6.4796L20.775 7.9751C21.1583 8.10845 21.4583 8.33435 21.675 8.65285C21.8916 8.97135 22 9.3232 22 9.70835C22 9.8862 21.9748 10.0637 21.9242 10.2408C21.8736 10.418 21.7905 10.5877 21.675 10.7501L18.825 14.8251L18.925 19.1501C18.925 19.6667 18.75 20.1042 18.4 20.4626C18.05 20.8209 17.6319 21.0001 17.1455 21.0001C17.1152 21.0001 16.9583 20.9751 16.675 20.9251L12 19.6251L7.3305 20.9231C7.2435 20.9577 7.1541 20.9792 7.06225 20.9876C6.9704 20.9959 6.88625 21.0001 6.80975 21.0001C6.3199 21.0001 5.90415 20.8193 5.5625 20.4578C5.22085 20.0965 5.05835 19.6522 5.075 19.1251L5.175 14.7938L2.325 10.7251C2.2095 10.5612 2.12642 10.39 2.07575 10.2113C2.02525 10.0325 2 9.85375 2 9.6751C2 9.29175 2.10766 8.945 2.323 8.63485C2.53833 8.32485 2.839 8.10495 3.225 7.9751L7.671 6.4796ZM8.575 7.7751L3.35 9.5251L6.7 14.3751L6.575 19.5501L12 18.0501L17.425 19.5751L17.3 14.3751L20.65 9.5751L15.425 7.7751L12 3.3251L8.575 7.7751Z" fill="black"/>
</svg>
