<svg width="38" height="38" viewBox="0 0 38 38" fill="none" xmlns="http://www.w3.org/2000/svg">
<path d="M19 0.696777L34.8334 6.23844V19.0001C34.8334 25.5345 30.8228 30.1024 27.0814 32.9382C24.8245 34.6347 22.3477 36.0169 19.7189 37.0469L19.5811 37.0992L19.5415 37.1134L19.5304 37.1166L19.5257 37.1182C19.5241 37.1182 19.5225 37.1182 19 35.6251L18.4759 37.1198L18.4696 37.1166L18.4585 37.1134L18.4189 37.0976L18.2812 37.0469C17.5344 36.7582 16.8002 36.438 16.0804 36.0874C14.2633 35.2047 12.5349 34.1502 10.9187 32.9382C7.17885 30.1024 3.16669 25.5345 3.16669 19.0001V6.23844L19 0.696777ZM19 35.6251L18.4759 37.1198L19 37.3034L19.5241 37.1198L19 35.6251ZM19 33.9278L19.0143 33.9214C21.2051 33.0159 23.2729 31.8376 25.1687 30.4144C28.5539 27.8509 31.6667 24.1032 31.6667 19.0001V8.48678L19 4.05344L6.33335 8.48678V19.0001C6.33335 24.1032 9.44619 27.8478 12.8314 30.4159C14.7314 31.8419 16.804 33.0218 19 33.9278ZM28.614 13.2099L17.4183 24.4056L10.7002 17.6891L12.9406 15.4487L17.4167 19.9279L26.3736 10.971L28.614 13.2099Z" fill="black"/>
</svg>
