<svg width="38" height="38" viewBox="0 0 38 38" fill="none" xmlns="http://www.w3.org/2000/svg">
<path d="M2.80646 31.3468C2.87828 32.3433 3.30662 33.2805 4.01304 33.987C4.71947 34.6934 5.65671 35.1217 6.65317 35.1935C9.27833 35.4025 13.3903 35.625 19 35.625C24.609 35.625 28.7217 35.4025 31.3468 35.1935C32.3433 35.1217 33.2805 34.6934 33.987 33.987C34.6934 33.2805 35.1217 32.3433 35.1935 31.3468C35.4025 28.7217 35.625 24.6098 35.625 19C35.625 13.391 35.4025 9.27833 35.1935 6.65317C35.1217 5.65671 34.6934 4.71947 33.987 4.01304C33.2805 3.30662 32.3433 2.87828 31.3468 2.80646C28.7217 2.59746 24.6098 2.375 19 2.375C13.391 2.375 9.27833 2.59746 6.65317 2.80646C5.65671 2.87828 4.71947 3.30662 4.01304 4.01304C3.30662 4.71947 2.87828 5.65671 2.80646 6.65317C2.59746 9.27833 2.375 13.3903 2.375 19C2.375 24.609 2.59746 28.7217 2.80646 31.3468Z" stroke="black" stroke-width="1.5" stroke-linecap="round"/>
<path d="M24.2852 2.44531C24.2496 5.81781 24.0049 9.2679 23.8632 11.0199C23.8527 11.1491 23.8102 11.2738 23.7395 11.3825C23.6688 11.4912 23.5721 11.5807 23.4582 11.6427C23.3443 11.7048 23.2168 11.7375 23.0871 11.7379C22.9574 11.7384 22.8296 11.7065 22.7153 11.6453L19.1845 9.77773C19.1275 9.74764 19.064 9.73191 18.9996 9.73191C18.9352 9.73191 18.8717 9.74764 18.8148 9.77773L15.2855 11.6461C15.1712 11.7073 15.0434 11.7392 14.9137 11.7387C14.784 11.7383 14.6565 11.7056 14.5426 11.6435C14.4287 11.5815 14.332 11.492 14.2613 11.3833C14.1906 11.2746 14.1481 11.1499 14.1376 11.0206C13.9951 9.2679 13.7513 5.81781 13.7148 2.44531" stroke="black" stroke-width="1.5" stroke-linecap="round" stroke-linejoin="round"/>
<path d="M28.5 28.4998H21.375M28.5 22.1665H24.5417" stroke="black" stroke-width="1.5" stroke-linecap="round"/>
</svg>
