<svg width="24" height="24" viewBox="0 0 24 24" fill="none" xmlns="http://www.w3.org/2000/svg">
<path d="M3.97698 9.84024C4.01721 9.33905 4.24474 8.87139 4.61426 8.53041C4.98378 8.18943 5.46818 8.00014 5.97098 8.00024H18.029C18.5318 8.00014 19.0162 8.18943 19.3857 8.53041C19.7552 8.87139 19.9828 9.33905 20.023 9.84024L20.826 19.8402C20.8481 20.1154 20.8129 20.3922 20.7228 20.6532C20.6327 20.9141 20.4895 21.1536 20.3023 21.3565C20.1151 21.5594 19.8879 21.7213 19.635 21.8321C19.3821 21.9429 19.1091 22.0002 18.833 22.0002H5.16698C4.8909 22.0002 4.61783 21.9429 4.36496 21.8321C4.11209 21.7213 3.88489 21.5594 3.69768 21.3565C3.51046 21.1536 3.36728 20.9141 3.27715 20.6532C3.18702 20.3922 3.1519 20.1154 3.17398 19.8402L3.97698 9.84024V9.84024Z" stroke="#111111" stroke-width="2" stroke-linecap="round" stroke-linejoin="round"/>
<path d="M16 11.0002V6.00024C16 4.93938 15.5786 3.92196 14.8284 3.17182C14.0783 2.42167 13.0608 2.00024 12 2.00024C10.9391 2.00024 9.9217 2.42167 9.17156 3.17182C8.42141 3.92196 7.99998 4.93938 7.99998 6.00024V11.0002" stroke="#111111" stroke-width="2" stroke-linecap="round" stroke-linejoin="round"/>
</svg>
